 http://www.shotpix.com/images/31894672847812853138.jpeg


Source: DL.DTS.720p.BluRay.x264-OldsMan

Same film &gt;&gt; named different http://www.bluray-disc.de/blu-ray-filme/darkstalkers-blu-ray-disc
 
http://www.imdb.com/title/tt2106577/

Cosette is cursed. Demons Ghouls and Ghosts from the darkest corners of Hell are summoned to bring her to the other side. Now Cosette and Klaus her protector must face an unspeakable evil in an attempt to free her from this demonic curse.

General
Complete name                            : Demon Hunter 2012 BRRip x264 AAC-OFFLiNE.mp4
Format                                   : MPEG-4
Format profile                           : Base Media
Codec ID                                 : isom
File size                                : 700 MiB
Duration                                 : 1h 25mn
Overall bit rate mode                    : Variable
Overall bit rate                         : 1 150 Kbps
Encoded date                             : UTC 2013-02-15 23:37:31
Tagged date                              : UTC 2013-02-15 23:37:31

Video
ID                                       : 1
Format                                   : AVC
Format/Info                              : Advanced Video Codec
Format profile                           : High@L4.1
Format settings, CABAC                   : Yes
Format settings, ReFrames                : 3 frames
Codec ID                                 : avc1
Codec ID/Info                            : Advanced Video Coding
Duration                                 : 1h 25mn
Bit rate mode                            : Variable
Bit rate                                 : 821 Kbps
Maximum bit rate                         : 40.0 Mbps
Width                                    : 720 pixels
Height                                   : 400 pixels
Display aspect ratio                     : 16:9
Frame rate mode                          : Constant
Frame rate                               : 23.976 fps
Color space                              : YUV
Chroma subsampling                       : 4:2:0
Bit depth                                : 8 bits
Scan type                                : Progressive
Bits/(Pixel*Frame)                       : 0.119
Stream size                              : 499 MiB (71%)
Writing library                          : x264 core 129 r2245 bc13772

Audio
ID                                       : 2
Format                                   : AAC
Format/Info                              : Advanced Audio Codec
Format profile                           : LC
Codec ID                                 : 40
Duration                                 : 1h 25mn
Bit rate mode                            : Variable
Bit rate                                 : 326 Kbps
Maximum bit rate                         : 423 Kbps
Channel(s)                               : 6 channels
Channel positions                        : Front: L C R, Side: L R, LFE
Sampling rate                            : 48.0 KHz
Compression mode                         : Lossy
Stream size                              : 198 MiB (28%)
Language                                 : English
Encoded date                             : UTC 2013-02-15 20:57:54
Tagged date                              : UTC 2013-02-15 23:38:32

 
http://www.shotpix.com/images/16837640828320355463.png 
http://www.shotpix.com/images/29271905771786242474.png 
http://www.shotpix.com/images/68545818783444289185.png 
http://www.shotpix.com/images/78045838167361521890.png